<svg width="960" height="236" viewBox="0 0 960 236" fill="none" xmlns="http://www.w3.org/2000/svg">
<g clip-path="url(#clip0)">
<rect width="960" height="236" fill="black" fill-opacity="0"/>
<path fill-rule="evenodd" clip-rule="evenodd" d="M104.28 70.2733L144.839 29.7217L156.449 41.3208L115.89 81.8725L104.28 70.2733ZM87.8462 111.714C79.9089 111.714 73.4785 105.26 73.4785 97.2914C73.4785 89.3309 79.9089 82.8686 87.8462 82.8686C95.7834 82.8686 102.214 89.3309 102.214 97.2914C102.214 105.26 95.7834 111.714 87.8462 111.714ZM156.638 153.6L145.029 165.207L104.47 124.655L116.079 113.047L156.638 153.6Z" fill="#222222"/>
<path fill-rule="evenodd" clip-rule="evenodd" d="M897.275 208.776C893.546 217.197 888.199 223.85 881.236 228.706C874.265 233.571 866.562 236 858.144 236C846.306 236 835.614 231.703 826.058 223.117L838.449 200.997C844.121 206.347 849.999 209.023 856.076 209.023C862.154 209.023 867.094 206.833 870.905 202.454C874.708 198.083 876.62 193.299 876.62 188.122C876.62 185.849 859.193 141.536 824.352 55.1721H853.521L892.172 150.443L930.831 55.1721H960L897.275 208.776ZM796.977 24.3014C791.143 24.3014 786.602 26.1207 783.367 29.7676C780.118 33.4144 778.501 38.3207 778.501 44.4784V55.1721H812.537V77.0452H778.501V184.475H751.274V77.0452H734.992V55.1721H751.274V45.2029C751.274 31.5951 755.365 20.778 763.554 12.7599C771.729 4.73353 781.617 0.724474 793.211 0.724474C804.798 0.724474 815.365 5.02163 824.935 13.6078L813.748 32.8052C808.401 27.1415 802.811 24.3014 796.977 24.3014ZM692.695 34.5093C687.994 34.5093 683.943 32.8053 680.534 29.4054C677.134 26.0055 675.429 21.9552 675.429 17.2546C675.429 12.554 677.134 8.50382 680.534 5.10397C683.943 1.69585 687.994 0 692.695 0C697.388 0 701.448 1.69585 704.848 5.10397C708.248 8.50382 709.953 12.554 709.953 17.2546C709.953 21.9552 708.248 26.0055 704.848 29.4054C701.448 32.8053 697.388 34.5093 692.695 34.5093ZM622.05 184.475L583.641 127.838L563.946 147.768V184.475H536.717V4.12431H563.946V110.097L616.46 55.1721H651.461L602.356 106.45L655.108 184.475H622.05ZM470.989 161.622C477.402 161.622 483.627 160.017 489.662 156.897L507.043 174.283C494.841 182.359 481.412 186.418 466.731 186.418C448.741 186.418 433.262 180.301 420.302 168.068C407.334 155.835 400.854 139.831 400.854 120.066C400.854 100.301 407.622 84.2151 421.15 71.8175C434.678 59.4198 451.178 53.221 470.618 53.221C483.799 53.221 495.59 56.3246 506.023 62.4987L486.566 81.951C481.108 79.6707 475.632 78.5017 470.132 78.5017C458.786 78.5017 448.947 82.2726 440.598 89.8046C432.249 97.3375 428.082 107.059 428.082 118.971C428.082 130.875 432.216 140.968 440.475 149.233C448.741 157.489 458.91 161.622 470.989 161.622ZM310.91 186.418C291.462 186.418 275.259 179.972 262.29 167.097C249.322 154.213 242.842 138.457 242.842 119.819C242.842 101.19 249.322 85.4254 262.29 72.5502C275.259 59.6668 291.462 53.221 310.91 53.221C330.358 53.221 346.561 59.6668 359.53 72.5502C372.498 85.4254 378.978 101.19 378.978 119.819C378.978 138.457 372.498 154.213 359.53 167.097C346.561 179.972 330.358 186.418 310.91 186.418ZM340.206 89.3194C332.507 81.4576 322.742 77.5304 310.91 77.5304C299.078 77.5304 289.313 81.4576 281.623 89.3194C273.916 97.1811 270.071 107.348 270.071 119.819C270.071 132.299 273.916 142.466 281.623 150.319C289.313 158.181 299.078 162.108 310.91 162.108C322.742 162.108 332.507 158.181 340.206 150.319C347.896 142.466 351.749 132.299 351.749 119.819C351.749 107.348 347.896 97.1811 340.206 89.3194ZM187.29 4.12431H214.519V184.475H187.29V4.12431ZM88.2646 159.663C96.4401 159.663 104.229 158.033 111.368 155.135L131.178 174.95C118.474 182.038 103.851 186.113 88.2646 186.113C39.5214 186.113 0 146.599 0 97.864C0 49.1213 39.5214 9.6069 88.2646 9.6069C103.694 9.6069 118.186 13.5831 130.799 20.5393L111.319 40.0248C104.188 37.1435 96.4239 35.5136 88.2646 35.5136C54.1279 35.5136 26.4546 63.3055 26.4546 97.5926C26.4546 131.871 54.1279 159.663 88.2646 159.663ZM706.067 184.475H678.838V55.1721H706.067V184.475Z" fill="#03A9F4"/>
</g>
<defs>
<clipPath id="clip0">
<rect width="960" height="236" fill="white"/>
</clipPath>
</defs>
</svg>
