<svg width="20" height="20" viewBox="0 0 20 20" fill="none" xmlns="http://www.w3.org/2000/svg">
<path fill-rule="evenodd" clip-rule="evenodd" d="M14.5 20C17.5376 20 20 17.5376 20 14.5C20 11.4624 17.5376 9 14.5 9C11.4624 9 9 11.4624 9 14.5C9 17.5376 11.4624 20 14.5 20ZM14.5 19C16.9853 19 19 16.9853 19 14.5C19 12.0147 16.9853 10 14.5 10C12.0147 10 10 12.0147 10 14.5C10 16.9853 12.0147 19 14.5 19Z" fill="#37474F"/>
<path fill-rule="evenodd" clip-rule="evenodd" d="M17.7744 10.2667C17.2136 10.0933 16.6177 10 16 10C15.8369 10 15.6753 10.0065 15.5155 10.0193C15.6356 9.59071 15.7603 9.20414 16 9.3V5H1V16H10C10 16.3407 10.0284 16.6748 10.083 17H0.5C0.45 17 0.375 16.975 0.3 16.95C0.225 16.925 0.15 16.9 0.1 16.9C0 16.9 0 16.6 0 16.5V1.5C0 1.2 0.2 1 0.5 1H4V0.5C4 0.2 4.2 0 4.5 0C4.8 0 5 0.2 5 0.5V1H12V0.5C12 0.2 12.2 0 12.5 0C12.8 0 13 0.2 13 0.5V1H16.5C16.7 1 16.9 1.1 17 1.3V9.7C17.3463 9.87315 17.5964 10.0611 17.7744 10.2667ZM13 2H16V4H1V2H4V2.5C4 2.8 4.2 3 4.5 3C4.8 3 5 2.8 5 2.5V2H12V2.5C12 2.8 12.2 3 12.5 3C12.8 3 13 2.8 13 2.5V2Z" fill="#37474F"/>
<path d="M13 9V8H12V9H13Z" fill="#37474F"/>
<path d="M11 8H10V9H11V8Z" fill="#37474F"/>
<path d="M9 12H8V13H9V12Z" fill="#37474F"/>
<path d="M9 10H8V11H9V10Z" fill="#37474F"/>
<path d="M9 8H8V9H9V8Z" fill="#37474F"/>
<path d="M7 12H6V13H7V12Z" fill="#37474F"/>
<path d="M7 10H6V11H7V10Z" fill="#37474F"/>
<path d="M7 8H6V9H7V8Z" fill="#37474F"/>
<path d="M5 13V12H4V13H5Z" fill="#37474F"/>
<path d="M5 11V10H4V11H5Z" fill="#37474F"/>
<path d="M5 8H4V9H5V8Z" fill="#37474F"/>
<path d="M16 16.5C15.8 16.5 15.7 16.4005 15.6 16.301L14.2 14.9581C14.1 14.8586 14 14.6597 14 14.5602V11.5969C14 11.2984 14.2 11 14.5 11C14.8 11 15 11.199 15 11.5969V14.2618L16.4 15.6047C16.6 15.8037 16.6 16.1021 16.4 16.301C16.2258 16.4744 16.1 16.5 16 16.5Z" fill="#37474F"/>
</svg>
