<svg width="20" height="19" viewBox="0 0 20 19" fill="none" xmlns="http://www.w3.org/2000/svg">
<g clip-path="url(#clip0)">
<path fill-rule="evenodd" clip-rule="evenodd" d="M12.4258 0.312507C11.6514 0.108603 10.8384 0 10 0C4.75329 0 0.5 4.25329 0.5 9.5C0.5 14.7467 4.75329 19 10 19C15.2467 19 19.5 14.7467 19.5 9.5C19.5 8.70797 19.4031 7.93859 19.2204 7.20305C18.9458 7.37425 18.6531 7.51933 18.346 7.63481C18.4796 8.2352 18.55 8.85937 18.55 9.5C18.55 14.222 14.722 18.05 10 18.05C5.27798 18.05 1.45001 14.222 1.45001 9.5C1.45001 4.77797 5.27798 0.95 10 0.95C10.6822 0.95 11.3457 1.02989 11.9817 1.18084C12.1015 0.875469 12.2507 0.584864 12.4258 0.312507Z" fill="#03A9F4"/>
<path d="M15.8454 3.32922L13.7809 2.71399L14.0954 1.68176L16.1598 2.44739L16.0983 0.0958252H17.1442L17.0758 2.48157L19.1061 1.72961L19.4206 2.76868L17.3219 3.39075L18.6754 5.24329L17.8278 5.88586L16.5563 3.91711L15.3258 5.83801L14.4713 5.21594L15.8454 3.32922Z" fill="#F44336"/>
<path fill-rule="evenodd" clip-rule="evenodd" d="M10.4798 4.75005L9.53938 4.75005L9.53938 9.02062L5.26881 9.02062V9.96107L9.53938 9.96107L9.53938 14.2316L10.4798 14.2316L10.4798 9.96107L14.7504 9.96107V9.02062L10.4798 9.02062L10.4798 4.75005Z" fill="#03A9F4"/>
</g>
<defs>
<clipPath id="clip0">
<rect width="19" height="19" fill="white" transform="translate(0.5)"/>
</clipPath>
</defs>
</svg>
